<svg width="330" height="81" viewBox="0 0 330 81" fill="none" xmlns="http://www.w3.org/2000/svg">
<path d="M323.121 77.9398C326.465 77.9398 329.176 74.964 329.176 71.2932C329.176 67.6224 326.465 64.6466 323.121 64.6466C319.776 64.6466 317.065 67.6224 317.065 71.2932C317.065 74.964 319.776 77.9398 323.121 77.9398Z" fill="#D9D9D9"/>
<path d="M325.066 77.9397C327.336 77.9397 329.176 74.9639 329.176 71.2931C329.176 67.6223 327.336 64.6465 325.066 64.6465C322.795 64.6465 320.955 67.6223 320.955 71.2931C320.955 74.9639 322.795 77.9397 325.066 77.9397Z" fill="#E20007"/>
<path d="M320.778 77.8317C322.779 77.8317 324.402 74.8802 324.402 71.2392C324.402 67.5982 322.779 64.6466 320.778 64.6466C318.776 64.6466 317.153 67.5982 317.153 71.2392C317.153 74.8802 318.776 77.8317 320.778 77.8317Z" fill="#2B4A9E"/>
<path d="M324.402 64.7546H321.927V77.9398H324.402V64.7546Z" fill="white"/>
<path d="M25.4003 1.88464H1.69336" stroke="black" stroke-width="2" stroke-linecap="square"/>
<path d="M0 77.0753V77.9599H1.75174V77.0753H0ZM0 1V77.0753H1.75174V1H0Z" fill="black"/>
<path d="M25.4587 77.9599H26.3345V76.1907H25.4587V77.9599ZM0 77.9599H25.4587V76.1907H0V77.9599Z" fill="black"/>
<path d="M73.1647 1.88464H29.3711V77.0164H73.1647V1.88464Z" stroke="black" stroke-width="3"/>
<path d="M72.525 25.3621L73.4008 25.3596L73.3961 23.5905L72.5203 23.5929L72.525 25.3621ZM29.8992 25.482L72.525 25.3621L72.5203 23.5929L29.8945 23.7128L29.8992 25.482Z" fill="black"/>
<path d="M72.5222 52.0139H73.3981V50.2448H72.5222V52.0139ZM29.8965 52.0139H72.5222V50.2448H29.8965V52.0139Z" fill="black"/>
<path d="M72.5222 2.53333H29.8965V23.7636H72.5222V2.53333Z" fill="#A1A536"/>
<path d="M72.5222 51.9528H29.8965V76.1317H72.5222V51.9528Z" fill="#706668"/>
<rect x="31" y="25" width="41" height="25" fill="white"/>
<path d="M313.165 5.32092C314.068 5.32092 314.878 5.53113 315.594 5.95155C316.31 6.35644 316.871 6.9247 317.276 7.65658C317.681 8.37281 317.883 9.18258 317.883 10.0857C317.883 10.9887 317.681 11.8062 317.276 12.5381C316.871 13.27 316.31 13.8461 315.594 14.2665C314.878 14.6714 314.068 14.8738 313.165 14.8738C312.246 14.8738 311.429 14.6714 310.713 14.2665C309.997 13.8461 309.436 13.27 309.031 12.5381C308.626 11.8062 308.424 10.9887 308.424 10.0857C308.424 9.18258 308.626 8.37281 309.031 7.65658C309.436 6.9247 309.997 6.35644 310.713 5.95155C311.429 5.53113 312.246 5.32092 313.165 5.32092ZM313.165 13.9395C314.286 13.9395 315.189 13.5813 315.875 12.8651C316.575 12.1489 316.926 11.2223 316.926 10.0857C316.926 8.94902 316.575 8.02246 315.875 7.30623C315.189 6.59 314.286 6.23183 313.165 6.23183C312.029 6.23183 311.118 6.59 310.432 7.30623C309.763 8.02246 309.428 8.94902 309.428 10.0857C309.428 11.2223 309.763 12.1489 310.432 12.8651C311.118 13.5813 312.029 13.9395 313.165 13.9395ZM315.267 9.10469C315.267 9.47839 315.166 9.79756 314.964 10.0623C314.777 10.3114 314.512 10.4905 314.17 10.5995L315.478 12.5381L314.006 12.5615L312.885 10.6929H312.488V12.5615H311.273V7.5398H313.516C314.045 7.5398 314.465 7.67994 314.777 7.96021C315.104 8.24049 315.267 8.62202 315.267 9.10469ZM312.488 9.6886H313.445C313.617 9.6886 313.757 9.64189 313.866 9.54846C313.991 9.45504 314.053 9.32272 314.053 9.1514C314.053 8.98008 313.991 8.85559 313.866 8.77769C313.757 8.68427 313.617 8.63756 313.445 8.63756H312.488V9.6886Z" fill="white"/>
<path d="M90.5664 77.2604L79.3032 77.3795" stroke="#A1A536" stroke-width="2"/>
<path d="M80.1709 1V77.4563" stroke="#A1A536" stroke-width="2"/>
<path d="M165.378 1.75671H79.2949" stroke="#A1A536" stroke-width="2"/>
<path d="M323.981 1.87585H178.364" stroke="#706668" stroke-width="2"/>
<path d="M323.104 61.4982V1" stroke="#706668" stroke-width="2"/>
<path d="M92.4922 74.4658C92.4922 73.7776 92.6299 73.1743 92.9051 72.6561C93.1886 72.1298 93.5772 71.725 94.0711 71.4416C94.565 71.1581 95.1318 71.0165 95.7714 71.0165C96.5811 71.0165 97.2491 71.2108 97.7754 71.5994C98.3098 71.98 98.6701 72.5266 98.8564 73.2391H97.3625C97.241 72.9071 97.0467 72.648 96.7795 72.4618C96.5123 72.2755 96.1763 72.1824 95.7714 72.1824C95.2047 72.1824 94.7512 72.3848 94.4112 72.7897C94.0792 73.1864 93.9132 73.7451 93.9132 74.4658C93.9132 75.1864 94.0792 75.7491 94.4112 76.154C94.7512 76.5589 95.2047 76.7613 95.7714 76.7613C96.573 76.7613 97.1034 76.409 97.3625 75.7046H98.8564C98.6621 76.3847 98.2977 76.9272 97.7633 77.3321C97.2289 77.7288 96.565 77.9272 95.7714 77.9272C95.1318 77.9272 94.565 77.7856 94.0711 77.5021C93.5772 77.2106 93.1886 76.8057 92.9051 76.2876C92.6299 75.7612 92.4922 75.154 92.4922 74.4658ZM103.078 72.0974C103.281 71.7573 103.548 71.4942 103.88 71.308C104.22 71.1136 104.621 71.0165 105.082 71.0165V72.4496H104.73C104.188 72.4496 103.775 72.5873 103.491 72.8626C103.216 73.1378 103.078 73.6156 103.078 74.2957V77.8179H101.694V71.1258H103.078V72.0974ZM113.946 74.3079C113.946 74.5588 113.93 74.7856 113.897 74.988H108.784C108.825 75.5224 109.023 75.9516 109.379 76.2754C109.735 76.5993 110.173 76.7613 110.691 76.7613C111.436 76.7613 111.962 76.4496 112.27 75.826H113.764C113.561 76.4414 113.193 76.9475 112.658 77.3442C112.132 77.7329 111.476 77.9272 110.691 77.9272C110.051 77.9272 109.476 77.7856 108.966 77.5021C108.464 77.2106 108.067 76.8057 107.776 76.2876C107.493 75.7612 107.351 75.154 107.351 74.4658C107.351 73.7776 107.489 73.1743 107.764 72.6561C108.047 72.1298 108.44 71.725 108.942 71.4416C109.452 71.1581 110.035 71.0165 110.691 71.0165C111.322 71.0165 111.885 71.1542 112.379 71.4294C112.873 71.7047 113.258 72.0933 113.533 72.5954C113.808 73.0892 113.946 73.6601 113.946 74.3079ZM112.5 73.8706C112.492 73.3605 112.31 72.9517 111.954 72.6439C111.598 72.3362 111.156 72.1824 110.63 72.1824C110.152 72.1824 109.743 72.3362 109.403 72.6439C109.063 72.9435 108.861 73.3525 108.796 73.8706H112.5ZM111.905 69.3283L109.221 70.6521V69.6319L111.905 68.1501V69.3283ZM116.304 74.4415C116.304 73.7694 116.442 73.1743 116.717 72.6561C117 72.1379 117.381 71.7371 117.859 71.4537C118.345 71.1622 118.88 71.0165 119.462 71.0165C119.989 71.0165 120.446 71.1217 120.834 71.3322C121.232 71.5346 121.547 71.7897 121.782 72.0974V71.1258H123.178V77.8179H121.782V76.822C121.547 77.1378 121.227 77.4009 120.823 77.6114C120.418 77.822 119.956 77.9272 119.438 77.9272C118.863 77.9272 118.336 77.7815 117.859 77.49C117.381 77.1904 117 76.7775 116.717 76.2511C116.442 75.7167 116.304 75.1136 116.304 74.4415ZM121.782 74.4658C121.782 74.0042 121.685 73.6034 121.491 73.2634C121.304 72.9233 121.058 72.6642 120.749 72.4861C120.442 72.308 120.11 72.2189 119.753 72.2189C119.397 72.2189 119.065 72.308 118.758 72.4861C118.45 72.6561 118.199 72.9111 118.005 73.2512C117.818 73.5832 117.726 73.9799 117.726 74.4415C117.726 74.903 117.818 75.3079 118.005 75.656C118.199 76.0041 118.45 76.2713 118.758 76.4576C119.073 76.6357 119.405 76.7248 119.753 76.7248C120.11 76.7248 120.442 76.6357 120.749 76.4576C121.058 76.2795 121.304 76.0204 121.491 75.6803C121.685 75.3322 121.782 74.9273 121.782 74.4658ZM128.07 72.2553V75.9597C128.07 76.2106 128.126 76.3928 128.24 76.5062C128.361 76.6114 128.564 76.6641 128.847 76.6641H129.697V77.8179H128.604C127.98 77.8179 127.503 77.6722 127.171 77.3807C126.839 77.0892 126.674 76.6155 126.674 75.9597V72.2553H125.884V71.1258H126.674V69.4619H128.07V71.1258H129.697V72.2553H128.07ZM138.564 74.3079C138.564 74.5588 138.548 74.7856 138.515 74.988H133.403C133.444 75.5224 133.642 75.9516 133.998 76.2754C134.354 76.5993 134.791 76.7613 135.31 76.7613C136.055 76.7613 136.58 76.4496 136.889 75.826H138.382C138.18 76.4414 137.811 76.9475 137.277 77.3442C136.751 77.7329 136.094 77.9272 135.31 77.9272C134.67 77.9272 134.095 77.7856 133.585 77.5021C133.083 77.2106 132.686 76.8057 132.395 76.2876C132.111 75.7612 131.97 75.154 131.97 74.4658C131.97 73.7776 132.108 73.1743 132.382 72.6561C132.666 72.1298 133.058 71.725 133.56 71.4416C134.071 71.1581 134.653 71.0165 135.31 71.0165C135.941 71.0165 136.504 71.1542 136.997 71.4294C137.491 71.7047 137.877 72.0933 138.151 72.5954C138.427 73.0892 138.564 73.6601 138.564 74.3079ZM137.119 73.8706C137.112 73.3605 136.929 72.9517 136.572 72.6439C136.216 72.3362 135.776 72.1824 135.249 72.1824C134.771 72.1824 134.363 72.3362 134.022 72.6439C133.682 72.9435 133.48 73.3525 133.414 73.8706H137.119ZM147.445 71.1258V77.8179H146.061V77.0284C145.842 77.3037 145.554 77.5223 145.198 77.6843C144.85 77.8381 144.477 77.9151 144.081 77.9151C143.555 77.9151 143.08 77.8058 142.66 77.5871C142.247 77.3685 141.918 77.0447 141.676 76.6155C141.441 76.1863 141.324 75.6682 141.324 75.0609V71.1258H142.696V74.8544C142.696 75.4536 142.846 75.9152 143.146 76.239C143.445 76.5548 143.854 76.7127 144.372 76.7127C144.891 76.7127 145.299 76.5548 145.599 76.239C145.907 75.9152 146.061 75.4536 146.061 74.8544V71.1258H147.445ZM152.114 72.0974C152.317 71.7573 152.583 71.4942 152.916 71.308C153.256 71.1136 153.656 71.0165 154.118 71.0165V72.4496H153.766C153.223 72.4496 152.811 72.5873 152.527 72.8626C152.251 73.1378 152.114 73.6156 152.114 74.2957V77.8179H150.73V71.1258H152.114V72.0974ZM160.998 74.4415C160.998 73.7694 161.136 73.1743 161.412 72.6561C161.696 72.1379 162.076 71.7371 162.554 71.4537C163.04 71.1622 163.578 71.0165 164.169 71.0165C164.606 71.0165 165.036 71.1136 165.456 71.308C165.886 71.4942 166.226 71.7452 166.477 72.061V68.8303H167.873V77.8179H166.477V76.8098C166.25 77.1337 165.934 77.4009 165.53 77.6114C165.133 77.822 164.675 77.9272 164.156 77.9272C163.573 77.9272 163.04 77.7815 162.554 77.49C162.076 77.1904 161.696 76.7775 161.412 76.2511C161.136 75.7167 160.998 75.1136 160.998 74.4415ZM166.477 74.4658C166.477 74.0042 166.38 73.6034 166.185 73.2634C165.999 72.9233 165.751 72.6642 165.444 72.4861C165.136 72.308 164.804 72.2189 164.448 72.2189C164.092 72.2189 163.76 72.308 163.452 72.4861C163.145 72.6561 162.894 72.9111 162.699 73.2512C162.513 73.5832 162.42 73.9799 162.42 74.4415C162.42 74.903 162.513 75.3079 162.699 75.656C162.894 76.0041 163.145 76.2713 163.452 76.4576C163.769 76.6357 164.1 76.7248 164.448 76.7248C164.804 76.7248 165.136 76.6357 165.444 76.4576C165.751 76.2795 165.999 76.0204 166.185 75.6803C166.38 75.3322 166.477 74.9273 166.477 74.4658ZM171.368 69.3768H172.874L171.599 72.2674H170.627L171.368 69.3768ZM181.682 74.3079C181.682 74.5588 181.665 74.7856 181.633 74.988H176.52C176.561 75.5224 176.758 75.9516 177.114 76.2754C177.472 76.5993 177.909 76.7613 178.427 76.7613C179.172 76.7613 179.698 76.4496 180.006 75.826H181.5C181.298 76.4414 180.929 76.9475 180.394 77.3442C179.868 77.7329 179.212 77.9272 178.427 77.9272C177.787 77.9272 177.213 77.7856 176.702 77.5021C176.2 77.2106 175.803 76.8057 175.512 76.2876C175.228 75.7612 175.087 75.154 175.087 74.4658C175.087 73.7776 175.225 73.1743 175.499 72.6561C175.783 72.1298 176.176 71.725 176.678 71.4416C177.188 71.1581 177.771 71.0165 178.427 71.0165C179.058 71.0165 179.621 71.1542 180.115 71.4294C180.609 71.7047 180.994 72.0933 181.268 72.5954C181.544 73.0892 181.682 73.6601 181.682 74.3079ZM180.236 73.8706C180.228 73.3605 180.046 72.9517 179.69 72.6439C179.333 72.3362 178.892 72.1824 178.366 72.1824C177.889 72.1824 177.479 72.3362 177.139 72.6439C176.799 72.9435 176.597 73.3525 176.532 73.8706H180.236ZM186.931 77.9272C186.405 77.9272 185.93 77.8341 185.51 77.6479C185.097 77.4535 184.768 77.1944 184.526 76.8706C184.283 76.5385 184.153 76.1702 184.138 75.7653H185.571C185.595 76.0488 185.728 76.2876 185.971 76.4819C186.222 76.6682 186.534 76.7613 186.907 76.7613C187.296 76.7613 187.595 76.6884 187.805 76.5426C188.024 76.3888 188.133 76.1945 188.133 75.9597C188.133 75.7087 188.011 75.5224 187.769 75.401C187.534 75.2795 187.158 75.1459 186.639 75.0002C186.137 74.8625 185.728 74.7289 185.413 74.5994C185.097 74.4699 184.821 74.2714 184.586 74.0042C184.36 73.737 184.246 73.3848 184.246 72.9476C184.246 72.5913 184.351 72.2674 184.563 71.976C184.773 71.6764 185.072 71.4416 185.461 71.2715C185.858 71.1015 186.311 71.0165 186.821 71.0165C187.583 71.0165 188.194 71.2108 188.655 71.5994C189.126 71.98 189.375 72.5023 189.408 73.1662H188.024C188 72.8667 187.878 72.6277 187.66 72.4496C187.44 72.2715 187.145 72.1824 186.772 72.1824C186.408 72.1824 186.129 72.2512 185.935 72.3889C185.74 72.5266 185.643 72.7088 185.643 72.9354C185.643 73.1135 185.709 73.2634 185.838 73.3848C185.968 73.5063 186.125 73.6034 186.311 73.6763C186.498 73.7411 186.772 73.8261 187.137 73.9314C187.623 74.0609 188.02 74.1945 188.328 74.3322C188.643 74.4617 188.914 74.656 189.141 74.9151C189.368 75.1743 189.485 75.5183 189.493 75.9475C189.493 76.3281 189.388 76.6682 189.178 76.9677C188.967 77.2673 188.668 77.5021 188.279 77.6722C187.898 77.8422 187.449 77.9272 186.931 77.9272ZM193.832 72.1096C194.067 71.8018 194.387 71.5428 194.791 71.3322C195.196 71.1217 195.654 71.0165 196.163 71.0165C196.747 71.0165 197.277 71.1622 197.755 71.4537C198.24 71.7371 198.621 72.1379 198.896 72.6561C199.171 73.1743 199.309 73.7694 199.309 74.4415C199.309 75.1136 199.171 75.7167 198.896 76.2511C198.621 76.7775 198.24 77.1904 197.755 77.49C197.277 77.7815 196.747 77.9272 196.163 77.9272C195.654 77.9272 195.199 77.826 194.804 77.6236C194.407 77.413 194.083 77.154 193.832 76.8463V81H192.447V71.1258H193.832V72.1096ZM197.901 74.4415C197.901 73.9799 197.803 73.5832 197.609 73.2512C197.423 72.9111 197.172 72.6561 196.855 72.4861C196.548 72.308 196.217 72.2189 195.859 72.2189C195.511 72.2189 195.18 72.308 194.864 72.4861C194.556 72.6642 194.305 72.9233 194.111 73.2634C193.924 73.6034 193.832 74.0042 193.832 74.4658C193.832 74.9273 193.924 75.3322 194.111 75.6803C194.305 76.0204 194.556 76.2795 194.864 76.4576C195.18 76.6357 195.511 76.7248 195.859 76.7248C196.217 76.7248 196.548 76.6357 196.855 76.4576C197.172 76.2713 197.423 76.0041 197.609 75.656C197.803 75.3079 197.901 74.903 197.901 74.4415ZM201.674 74.4415C201.674 73.7694 201.812 73.1743 202.087 72.6561C202.371 72.1379 202.751 71.7371 203.229 71.4537C203.715 71.1622 204.249 71.0165 204.832 71.0165C205.358 71.0165 205.816 71.1217 206.205 71.3322C206.601 71.5346 206.917 71.7897 207.152 72.0974V71.1258H208.549V77.8179H207.152V76.822C206.917 77.1378 206.597 77.4009 206.192 77.6114C205.787 77.822 205.326 77.9272 204.808 77.9272C204.233 77.9272 203.707 77.7815 203.229 77.49C202.751 77.1904 202.371 76.7775 202.087 76.2511C201.812 75.7167 201.674 75.1136 201.674 74.4415ZM207.152 74.4658C207.152 74.0042 207.055 73.6034 206.86 73.2634C206.675 72.9233 206.427 72.6642 206.12 72.4861C205.812 72.308 205.48 72.2189 205.124 72.2189C204.767 72.2189 204.436 72.308 204.128 72.4861C203.82 72.6561 203.569 72.9111 203.374 73.2512C203.189 73.5832 203.095 73.9799 203.095 74.4415C203.095 74.903 203.189 75.3079 203.374 75.656C203.569 76.0041 203.82 76.2713 204.128 76.4576C204.444 76.6357 204.776 76.7248 205.124 76.7248C205.48 76.7248 205.812 76.6357 206.12 76.4576C206.427 76.2795 206.675 76.0204 206.86 75.6803C207.055 75.3322 207.152 74.9273 207.152 74.4658ZM211.363 74.4658C211.363 73.7776 211.501 73.1743 211.776 72.6561C212.059 72.1298 212.448 71.725 212.942 71.4416C213.436 71.1581 214.003 71.0165 214.643 71.0165C215.452 71.0165 216.12 71.2108 216.647 71.5994C217.18 71.98 217.541 72.5266 217.727 73.2391H216.233C216.112 72.9071 215.918 72.648 215.65 72.4618C215.383 72.2755 215.047 72.1824 214.643 72.1824C214.075 72.1824 213.622 72.3848 213.282 72.7897C212.95 73.1864 212.785 73.7451 212.785 74.4658C212.785 75.1864 212.95 75.7491 213.282 76.154C213.622 76.5589 214.075 76.7613 214.643 76.7613C215.444 76.7613 215.974 76.409 216.233 75.7046H217.727C217.533 76.3847 217.169 76.9272 216.634 77.3321C216.1 77.7288 215.436 77.9272 214.643 77.9272C214.003 77.9272 213.436 77.7856 212.942 77.5021C212.448 77.2106 212.059 76.8057 211.776 76.2876C211.501 75.7612 211.363 75.154 211.363 74.4658ZM226.698 74.3079C226.698 74.5588 226.682 74.7856 226.649 74.988H221.536C221.577 75.5224 221.775 75.9516 222.131 76.2754C222.488 76.5993 222.925 76.7613 223.443 76.7613C224.188 76.7613 224.714 76.4496 225.022 75.826H226.516C226.314 76.4414 225.945 76.9475 225.41 77.3442C224.884 77.7329 224.228 77.9272 223.443 77.9272C222.803 77.9272 222.229 77.7856 221.719 77.5021C221.216 77.2106 220.819 76.8057 220.528 76.2876C220.245 75.7612 220.103 75.154 220.103 74.4658C220.103 73.7776 220.241 73.1743 220.516 72.6561C220.799 72.1298 221.192 71.725 221.694 71.4416C222.204 71.1581 222.787 71.0165 223.443 71.0165C224.074 71.0165 224.637 71.1542 225.131 71.4294C225.625 71.7047 226.01 72.0933 226.285 72.5954C226.56 73.0892 226.698 73.6601 226.698 74.3079ZM225.252 73.8706C225.244 73.3605 225.062 72.9517 224.706 72.6439C224.35 72.3362 223.908 72.1824 223.383 72.1824C222.905 72.1824 222.495 72.3362 222.155 72.6439C221.815 72.9435 221.613 73.3525 221.548 73.8706H225.252ZM231.948 77.9272C231.421 77.9272 230.947 77.8341 230.526 77.6479C230.113 77.4535 229.785 77.1944 229.542 76.8706C229.299 76.5385 229.17 76.1702 229.154 75.7653H230.587C230.612 76.0488 230.745 76.2876 230.988 76.4819C231.239 76.6682 231.55 76.7613 231.923 76.7613C232.312 76.7613 232.611 76.6884 232.821 76.5426C233.041 76.3888 233.149 76.1945 233.149 75.9597C233.149 75.7087 233.028 75.5224 232.785 75.401C232.55 75.2795 232.174 75.1459 231.656 75.0002C231.153 74.8625 230.745 74.7289 230.429 74.5994C230.113 74.4699 229.838 74.2714 229.603 74.0042C229.376 73.737 229.263 73.3848 229.263 72.9476C229.263 72.5913 229.368 72.2674 229.579 71.976C229.789 71.6764 230.088 71.4416 230.477 71.2715C230.874 71.1015 231.327 71.0165 231.838 71.0165C232.599 71.0165 233.21 71.2108 233.671 71.5994C234.142 71.98 234.393 72.5023 234.424 73.1662H233.041C233.016 72.8667 232.895 72.6277 232.676 72.4496C232.457 72.2715 232.161 72.1824 231.789 72.1824C231.424 72.1824 231.145 72.2512 230.951 72.3889C230.756 72.5266 230.659 72.7088 230.659 72.9354C230.659 73.1135 230.725 73.2634 230.854 73.3848C230.984 73.5063 231.142 73.6034 231.327 73.6763C231.514 73.7411 231.789 73.8261 232.153 73.9314C232.639 74.0609 233.036 74.1945 233.344 74.3322C233.66 74.4617 233.93 74.656 234.157 74.9151C234.385 75.1743 234.502 75.5183 234.51 75.9475C234.51 76.3281 234.405 76.6682 234.194 76.9677C233.983 77.2673 233.684 77.5021 233.295 77.6722C232.914 77.8422 232.465 77.9272 231.948 77.9272ZM242.78 70.2392C242.529 70.2392 242.319 70.1541 242.149 69.9841C241.978 69.8141 241.894 69.6035 241.894 69.3525C241.894 69.1016 241.978 68.891 242.149 68.721C242.319 68.5509 242.529 68.4659 242.78 68.4659C243.023 68.4659 243.23 68.5509 243.399 68.721C243.57 68.891 243.655 69.1016 243.655 69.3525C243.655 69.6035 243.57 69.8141 243.399 69.9841C243.23 70.1541 243.023 70.2392 242.78 70.2392ZM243.46 71.1258V77.8179H242.076V71.1258H243.46ZM250.112 71.0165C250.639 71.0165 251.108 71.1258 251.52 71.3444C251.942 71.563 252.27 71.8868 252.505 72.316C252.74 72.7452 252.856 73.2634 252.856 73.8706V77.8179H251.484V74.0771C251.484 73.4779 251.335 73.0205 251.035 72.7047C250.736 72.3808 250.327 72.2189 249.808 72.2189C249.29 72.2189 248.878 72.3808 248.569 72.7047C248.27 73.0205 248.12 73.4779 248.12 74.0771V77.8179H246.736V71.1258H248.12V71.8909C248.347 71.6157 248.635 71.401 248.983 71.2472C249.339 71.0934 249.715 71.0165 250.112 71.0165ZM257.696 72.2553V75.9597C257.696 76.2106 257.753 76.3928 257.866 76.5062C257.988 76.6114 258.19 76.6641 258.474 76.6641H259.324V77.8179H258.231C257.607 77.8179 257.129 77.6722 256.797 77.3807C256.465 77.0892 256.299 76.6155 256.299 75.9597V72.2553H255.51V71.1258H256.299V69.4619H257.696V71.1258H259.324V72.2553H257.696ZM268.19 74.3079C268.19 74.5588 268.174 74.7856 268.142 74.988H263.028C263.069 75.5224 263.268 75.9516 263.624 76.2754C263.98 76.5993 264.417 76.7613 264.935 76.7613C265.68 76.7613 266.207 76.4496 266.514 75.826H268.008C267.806 76.4414 267.438 76.9475 266.903 77.3442C266.376 77.7329 265.721 77.9272 264.935 77.9272C264.295 77.9272 263.721 77.7856 263.21 77.5021C262.708 77.2106 262.312 76.8057 262.02 76.2876C261.736 75.7612 261.595 75.154 261.595 74.4658C261.595 73.7776 261.733 73.1743 262.009 72.6561C262.291 72.1298 262.685 71.725 263.187 71.4416C263.696 71.1581 264.28 71.0165 264.935 71.0165C265.567 71.0165 266.13 71.1542 266.624 71.4294C267.118 71.7047 267.502 72.0933 267.778 72.5954C268.052 73.0892 268.19 73.6601 268.19 74.3079ZM266.745 73.8706C266.737 73.3605 266.555 72.9517 266.199 72.6439C265.843 72.3362 265.401 72.1824 264.874 72.1824C264.397 72.1824 263.988 72.3362 263.648 72.6439C263.308 72.9435 263.105 73.3525 263.041 73.8706H266.745ZM266.15 69.3283L263.466 70.6521V69.6319L266.15 68.1501V69.3283ZM272.395 72.0974C272.597 71.7573 272.865 71.4942 273.196 71.308C273.536 71.1136 273.937 71.0165 274.399 71.0165V72.4496H274.047C273.505 72.4496 273.091 72.5873 272.808 72.8626C272.533 73.1378 272.395 73.6156 272.395 74.2957V77.8179H271.01V71.1258H272.395V72.0974ZM277.834 70.2392C277.583 70.2392 277.371 70.1541 277.202 69.9841C277.032 69.8141 276.946 69.6035 276.946 69.3525C276.946 69.1016 277.032 68.891 277.202 68.721C277.371 68.5509 277.583 68.4659 277.834 68.4659C278.077 68.4659 278.282 68.5509 278.453 68.721C278.623 68.891 278.707 69.1016 278.707 69.3525C278.707 69.6035 278.623 69.8141 278.453 69.9841C278.282 70.1541 278.077 70.2392 277.834 70.2392ZM278.514 71.1258V77.8179H277.128V71.1258H278.514ZM287.923 74.3079C287.923 74.5588 287.906 74.7856 287.874 74.988H282.761C282.801 75.5224 282.999 75.9516 283.355 76.2754C283.712 76.5993 284.149 76.7613 284.667 76.7613C285.412 76.7613 285.939 76.4496 286.246 75.826H287.741C287.537 76.4414 287.169 76.9475 286.635 77.3442C286.109 77.7329 285.453 77.9272 284.667 77.9272C284.028 77.9272 283.452 77.7856 282.943 77.5021C282.441 77.2106 282.044 76.8057 281.752 76.2876C281.469 75.7612 281.327 75.154 281.327 74.4658C281.327 73.7776 281.465 73.1743 281.74 72.6561C282.024 72.1298 282.416 71.725 282.919 71.4416C283.429 71.1581 284.012 71.0165 284.667 71.0165C285.299 71.0165 285.861 71.1542 286.355 71.4294C286.849 71.7047 287.234 72.0933 287.509 72.5954C287.785 73.0892 287.923 73.6601 287.923 74.3079ZM286.477 73.8706C286.469 73.3605 286.287 72.9517 285.93 72.6439C285.574 72.3362 285.133 72.1824 284.606 72.1824C284.128 72.1824 283.72 72.3362 283.38 72.6439C283.04 72.9435 282.838 73.3525 282.773 73.8706H286.477ZM296.803 71.1258V77.8179H295.418V77.0284C295.199 77.3037 294.912 77.5223 294.556 77.6843C294.208 77.8381 293.835 77.9151 293.438 77.9151C292.913 77.9151 292.439 77.8058 292.017 77.5871C291.605 77.3685 291.277 77.0447 291.034 76.6155C290.799 76.1863 290.681 75.6682 290.681 75.0609V71.1258H292.054V74.8544C292.054 75.4536 292.204 75.9152 292.503 76.239C292.803 76.5548 293.212 76.7127 293.73 76.7127C294.249 76.7127 294.658 76.5548 294.957 76.239C295.265 75.9152 295.418 75.4536 295.418 74.8544V71.1258H296.803ZM301.472 72.0974C301.674 71.7573 301.941 71.4942 302.273 71.308C302.614 71.1136 303.015 71.0165 303.476 71.0165V72.4496H303.123C302.581 72.4496 302.168 72.5873 301.885 72.8626C301.61 73.1378 301.472 73.6156 301.472 74.2957V77.8179H300.087V71.1258H301.472V72.0974ZM308.635 77.9272C308.109 77.9272 307.634 77.8341 307.214 77.6479C306.801 77.4535 306.474 77.1944 306.231 76.8706C305.988 76.5385 305.858 76.1702 305.842 75.7653H307.275C307.299 76.0488 307.432 76.2876 307.675 76.4819C307.926 76.6682 308.238 76.7613 308.611 76.7613C309 76.7613 309.299 76.6884 309.51 76.5426C309.728 76.3888 309.837 76.1945 309.837 75.9597C309.837 75.7087 309.716 75.5224 309.473 75.401C309.238 75.2795 308.862 75.1459 308.343 75.0002C307.841 74.8625 307.432 74.7289 307.117 74.5994C306.801 74.4699 306.526 74.2714 306.292 74.0042C306.064 73.737 305.95 73.3848 305.95 72.9476C305.95 72.5913 306.056 72.2674 306.267 71.976C306.477 71.6764 306.777 71.4416 307.165 71.2715C307.562 71.1015 308.015 71.0165 308.526 71.0165C309.287 71.0165 309.898 71.2108 310.36 71.5994C310.83 71.98 311.081 72.5023 311.112 73.1662H309.728C309.704 72.8667 309.582 72.6277 309.364 72.4496C309.146 72.2715 308.849 72.1824 308.478 72.1824C308.113 72.1824 307.833 72.2512 307.639 72.3889C307.445 72.5266 307.347 72.7088 307.347 72.9354C307.347 73.1135 307.413 73.2634 307.542 73.3848C307.672 73.5063 307.83 73.6034 308.015 73.6763C308.202 73.7411 308.478 73.8261 308.842 73.9314C309.328 74.0609 309.724 74.1945 310.032 74.3322C310.347 74.4617 310.618 74.656 310.846 74.9151C311.073 75.1743 311.189 75.5183 311.198 75.9475C311.198 76.3281 311.092 76.6682 310.882 76.9677C310.671 77.2673 310.372 77.5021 309.983 77.6722C309.602 77.8422 309.153 77.9272 308.635 77.9272Z" fill="white"/>
<path d="M168.401 61.1431V5.04016H175.859V61.1431H168.401ZM212.042 53.6857V42.4421C212.042 39.3444 210.952 36.7056 208.772 34.5257C206.593 32.3459 203.954 31.2559 200.856 31.2559C197.758 31.2559 195.12 32.3459 192.94 34.5257C190.722 36.7056 189.613 39.3444 189.613 42.4421C189.613 45.5399 190.722 48.1786 192.94 50.3584C195.12 52.5766 197.758 53.6857 200.856 53.6857H212.042ZM187.605 29.2482C191.276 25.5768 195.694 23.7411 200.856 23.7411C206.019 23.7411 210.418 25.5768 214.051 29.2482C217.721 32.8813 219.557 37.2792 219.557 42.4421V61.1431H200.856C195.694 61.1431 191.276 59.3266 187.605 55.6934C183.972 52.022 182.155 47.6049 182.155 42.4421C182.155 37.2792 183.972 32.8813 187.605 29.2482ZM230.73 29.2482C234.401 25.5768 238.818 23.7411 243.981 23.7411C249.144 23.7411 253.542 25.5768 257.175 29.2482C260.847 32.8813 262.681 37.2792 262.681 42.4421V61.1431H255.168V42.4421C255.168 39.3444 254.077 36.7056 251.898 34.5257C249.717 32.3459 247.079 31.2559 243.981 31.2559C240.883 31.2559 238.245 32.3459 236.064 34.5257C233.846 36.7056 232.737 39.3444 232.737 42.4421V61.1431H225.28V42.4421C225.28 37.2792 227.096 32.8813 230.73 29.2482ZM279.19 34.5257C276.971 36.7056 275.863 39.3444 275.863 42.4421C275.863 45.5399 276.971 48.1786 279.19 50.3584C281.369 52.5766 284.008 53.6857 287.105 53.6857H298.292V42.4421C298.292 39.3444 297.202 36.7056 295.022 34.5257C292.842 32.3459 290.204 31.2559 287.105 31.2559C284.008 31.2559 281.369 32.3459 279.19 34.5257ZM273.854 55.6934C270.221 52.022 268.405 47.6049 268.405 42.4421C268.405 37.2792 270.221 32.8813 273.854 29.2482C277.526 25.5768 281.942 23.7411 287.105 23.7411C291.274 23.7411 295.003 24.984 298.292 27.4698V5.04016H305.807V61.1431H287.105C281.942 61.1431 277.526 59.3266 273.854 55.6934Z" fill="white"/>
<path d="M175.874 1H168.4V5.32097H175.874V1Z" fill="white"/>
<path d="M93.9836 23.7126H101.441V61.1147H93.9836V23.7126ZM101.384 16.1979C102.416 15.1653 102.933 13.9415 102.933 12.5265C102.933 11.0732 102.416 9.8303 101.384 8.79783C100.389 7.80342 99.1656 7.30627 97.7124 7.30627C96.2591 7.30627 95.0354 7.80342 94.0411 8.79783C93.0085 9.8303 92.4922 11.0732 92.4922 12.5265C92.4922 13.9415 93.0085 15.1653 94.0411 16.1979C95.0354 17.2305 96.2591 17.7468 97.7124 17.7468C99.1656 17.7468 100.389 17.2305 101.384 16.1979ZM146.516 31.2275H120.358C119.325 31.2275 118.426 31.5908 117.661 32.3174C116.935 33.0441 116.572 33.9237 116.572 34.9563C116.572 35.9888 116.935 36.8685 117.661 37.5951C118.426 38.3217 119.325 38.685 120.358 38.685H135.273C138.37 38.685 141.028 39.775 143.246 41.9548C145.426 44.1347 146.516 46.7734 146.516 49.8712C146.516 52.9688 145.426 55.6267 143.246 57.8449C141.028 60.0247 138.37 61.1147 135.273 61.1147H109.114V53.6573H135.273C136.306 53.6573 137.185 53.294 137.911 52.5673C138.638 51.8024 139.001 50.9037 139.001 49.8712C139.001 48.8386 138.638 47.959 137.911 47.2324C137.185 46.5057 136.306 46.1424 135.273 46.1424H120.358C117.26 46.1424 114.602 45.0525 112.384 42.8726C110.204 40.6927 109.114 38.0539 109.114 34.9563C109.114 31.8585 110.204 29.2006 112.384 26.9824C114.602 24.8026 117.26 23.7126 120.358 23.7126H146.516V31.2275ZM153.272 23.7126H160.73V61.1147H153.272V23.7126ZM160.671 16.1979C161.705 15.1653 162.221 13.9415 162.221 12.5265C162.221 11.0732 161.705 9.8303 160.671 8.79783C159.677 7.80342 158.453 7.30627 157.001 7.30627C155.547 7.30627 154.323 7.80342 153.329 8.79783C152.297 9.8303 151.781 11.0732 151.781 12.5265C151.781 13.9415 152.297 15.1653 153.329 16.1979C154.323 17.2305 155.547 17.7468 157.001 17.7468C158.453 17.7468 159.677 17.2305 160.671 16.1979Z" fill="#A1A536"/>
</svg>
