<svg width="334" height="80" viewBox="0 0 334 80" fill="none" xmlns="http://www.w3.org/2000/svg">
<path fill-rule="evenodd" clip-rule="evenodd" d="M274.531 38.5355C274.533 33.3624 276.219 28.938 279.586 25.261C282.918 21.6226 286.951 19.8054 291.684 19.808L301.391 19.8134L301.406 27.2845L291.679 27.2792C288.84 27.2776 286.42 28.3878 284.421 30.6088C282.421 32.7923 281.421 35.435 281.419 38.5393C281.417 41.6436 282.415 44.2875 284.412 46.4732C286.409 48.6577 288.827 49.7519 291.667 49.7535L304.651 49.7607L304.566 8.76118L312.026 8.74586L312.126 57.216L308.806 57.2228L308.806 57.2915L291.663 57.282C286.93 57.2794 282.9 55.4389 279.571 51.7582C276.208 48.1161 274.528 43.7086 274.531 38.5355Z" fill="white"/>
<path fill-rule="evenodd" clip-rule="evenodd" d="M185.255 38.7619C185.269 43.935 186.963 48.3559 190.338 52.026C193.678 55.6575 197.714 57.4665 202.447 57.4541L212.154 57.4288V49.9576L202.427 49.983C199.588 49.9904 197.166 48.8851 195.162 46.6683C193.158 44.4889 192.152 41.8482 192.144 38.7439C192.136 35.6396 193.128 32.9938 195.121 30.804C197.113 28.6153 199.529 27.5161 202.369 27.5087L215.352 27.4749V57.5607H222.812V20.0044H219.492L219.492 19.9355L202.349 19.9802C197.616 19.9926 193.59 21.8413 190.269 25.5289C186.913 29.1778 185.242 33.5889 185.255 38.7619Z" fill="white"/>
<path d="M170.547 0V57.492H178.181V0H170.547Z" fill="white"/>
<path d="M248.643 19.6782C243.358 19.6782 238.836 21.5316 235.078 25.2384C231.359 28.9066 229.5 33.3468 229.5 38.5595V57.4409H237.133V38.5595C237.133 35.4319 238.269 32.7677 240.539 30.5668C242.771 28.3659 245.471 27.2655 248.643 27.2655C251.815 27.2655 254.515 28.3659 256.747 30.5668C258.978 32.7677 260.095 35.4319 260.095 38.5595V57.4409H267.787V38.5595C267.787 33.3468 265.909 28.9066 262.15 25.2384C258.431 21.5316 253.928 19.6782 248.643 19.6782Z" fill="white"/>
<path d="M325.917 0V59.9357H327.974V0H325.917Z" fill="white"/>
<path d="M180.579 2.05811L325.916 2.05811V0.00022772L180.579 0.00022772V2.05811Z" fill="white"/>
<path d="M317.437 7.20264C318.174 7.20264 318.835 7.36679 319.419 7.69509C320.003 8.01127 320.46 8.45503 320.791 9.02655C321.121 9.58585 321.286 10.2182 321.286 10.9234C321.286 11.6286 321.121 12.267 320.791 12.8385C320.46 13.4101 320.003 13.8599 319.419 14.1882C318.835 14.5044 318.174 14.6624 317.437 14.6624C316.687 14.6624 316.02 14.5044 315.436 14.1882C314.852 13.8599 314.395 13.4101 314.065 12.8385C313.734 12.267 313.569 11.6286 313.569 10.9234C313.569 10.2182 313.734 9.58585 314.065 9.02655C314.395 8.45503 314.852 8.01127 315.436 7.69509C316.02 7.36679 316.687 7.20264 317.437 7.20264ZM317.437 13.9329C318.352 13.9329 319.088 13.6532 319.647 13.0939C320.219 12.5346 320.505 11.811 320.505 10.9234C320.505 10.0358 320.219 9.31227 319.647 8.75296C319.088 8.19366 318.352 7.91396 317.437 7.91396C316.51 7.91396 315.767 8.19366 315.208 8.75296C314.662 9.31227 314.388 10.0358 314.388 10.9234C314.388 11.811 314.662 12.5346 315.208 13.0939C315.767 13.6532 316.51 13.9329 317.437 13.9329ZM319.152 10.1574C319.152 10.4492 319.069 10.6984 318.904 10.9052C318.752 11.0997 318.536 11.2396 318.256 11.3247L319.324 12.8385L318.123 12.8568L317.208 11.3976H316.885V12.8568H315.894V8.93535H317.723C318.155 8.93535 318.498 9.04479 318.752 9.26366C319.019 9.48253 319.152 9.78046 319.152 10.1574ZM316.885 10.6134H317.666C317.806 10.6134 317.92 10.5769 318.009 10.5039C318.111 10.431 318.161 10.3276 318.161 10.1939C318.161 10.0601 318.111 9.96286 318.009 9.90203C317.92 9.82907 317.806 9.79259 317.666 9.79259H316.885V10.6134Z" fill="white"/>
<path d="M156.656 20.3218V57.6208H164.373V20.3218H156.656Z" fill="#A1A536"/>
<path d="M97.4919 20.3218V57.6208H105.209V20.3218H97.4919Z" fill="#A1A536"/>
<ellipse cx="160.515" cy="12.6047" rx="3.85852" ry="3.60129" fill="#A1A536"/>
<ellipse cx="101.35" cy="12.6047" rx="3.85852" ry="3.60129" fill="#A1A536"/>
<path d="M123.922 27.3945H150.7V19.8071H123.922C120.751 19.8071 118.03 20.9076 115.759 23.1085C113.527 25.348 112.412 28.0315 112.412 31.1592C112.412 34.2867 113.527 36.951 115.759 39.1519C118.03 41.3528 120.751 42.4532 123.922 42.4532H139.191C140.247 42.4532 141.148 42.82 141.891 43.5537C142.635 44.2873 143.007 45.1754 143.007 46.2179C143.007 47.2604 142.635 48.1678 141.891 48.9401C141.148 49.6737 140.247 50.0405 139.191 50.0405H112.412V57.5699H139.191C142.361 57.5699 145.082 56.4694 147.352 54.2685C149.584 52.0289 150.7 49.3455 150.7 46.2179C150.7 43.0903 149.584 40.4261 147.352 38.2252C145.082 36.0243 142.361 34.9239 139.191 34.9239H123.922C122.865 34.9239 121.944 34.5571 121.161 33.8234C120.418 33.0898 120.046 32.2017 120.046 31.1592C120.046 30.1166 120.418 29.2285 121.161 28.4949C121.944 27.7613 122.865 27.3945 123.922 27.3945Z" fill="#A1A536"/>
<path d="M80.5144 2.05811L167.717 2.05811V0.00022772L80.5144 0.00022772V2.05811Z" fill="#A1A536"/>
<path d="M82.5723 76.1416V2.058H80.5144V76.1416H82.5723Z" fill="#A1A536"/>
<path d="M82.5723 76.1416H92.09V74.0837H82.5723V76.1416Z" fill="#A1A536"/>
<path d="M95.6914 73.8523C95.6914 73.2048 95.8312 72.6372 96.1106 72.1497C96.3982 71.6544 96.7927 71.2736 97.294 71.0069C97.7953 70.7403 98.3707 70.607 99.02 70.607C99.8418 70.607 100.52 70.7898 101.054 71.1555C101.597 71.5136 101.962 72.0278 102.151 72.6982H100.635C100.512 72.3858 100.314 72.1421 100.043 71.9668C99.772 71.7916 99.4309 71.704 99.02 71.704C98.4447 71.704 97.9844 71.8944 97.6392 72.2754C97.3022 72.6486 97.1338 73.1743 97.1338 73.8523C97.1338 74.5304 97.3022 75.0598 97.6392 75.4407C97.9844 75.8217 98.4447 76.0121 99.02 76.0121C99.8336 76.0121 100.372 75.6807 100.635 75.0179H102.151C101.954 75.6578 101.584 76.1682 101.042 76.5492C100.499 76.9224 99.8254 77.1091 99.02 77.1091C98.3707 77.1091 97.7953 76.9758 97.294 76.7091C96.7927 76.4349 96.3982 76.0539 96.1106 75.5664C95.8312 75.0712 95.6914 74.4998 95.6914 73.8523ZM106.437 71.624C106.642 71.304 106.913 71.0565 107.25 70.8812C107.595 70.6984 108.002 70.607 108.471 70.607V71.9554H108.113C107.563 71.9554 107.143 72.0849 106.856 72.3439C106.576 72.6029 106.437 73.0524 106.437 73.6923V77.0062H105.031V70.7098H106.437V71.624ZM117.468 73.7038C117.468 73.9399 117.451 74.1533 117.418 74.3437H112.228C112.269 74.8465 112.471 75.2503 112.832 75.555C113.194 75.8597 113.638 76.0121 114.164 76.0121C114.92 76.0121 115.454 75.7188 115.766 75.1322H117.283C117.077 75.7111 116.703 76.1873 116.161 76.5606C115.627 76.9263 114.961 77.1091 114.164 77.1091C113.514 77.1091 112.931 76.9758 112.413 76.7091C111.904 76.4349 111.501 76.0539 111.205 75.5664C110.917 75.0712 110.773 74.4998 110.773 73.8523C110.773 73.2048 110.913 72.6372 111.193 72.1497C111.48 71.6544 111.879 71.2736 112.388 71.0069C112.906 70.7403 113.498 70.607 114.164 70.607C114.805 70.607 115.376 70.7365 115.877 70.9955C116.379 71.2545 116.769 71.6202 117.048 72.0925C117.328 72.5572 117.468 73.0943 117.468 73.7038ZM116.001 73.2924C115.992 72.8124 115.807 72.4278 115.446 72.1382C115.084 71.8487 114.636 71.704 114.102 71.704C113.617 71.704 113.202 71.8487 112.857 72.1382C112.512 72.4201 112.306 72.8049 112.24 73.2924H116.001ZM115.396 69.0186L112.672 70.2642V69.3043L115.396 67.9102V69.0186ZM119.862 73.8295C119.862 73.1971 120.001 72.6372 120.281 72.1497C120.568 71.6621 120.955 71.285 121.439 71.0184C121.933 70.7441 122.475 70.607 123.067 70.607C123.602 70.607 124.065 70.706 124.46 70.9041C124.863 71.0945 125.183 71.3345 125.421 71.624V70.7098H126.839V77.0062H125.421V76.0692C125.183 76.3663 124.858 76.6139 124.448 76.812C124.037 77.0101 123.568 77.1091 123.042 77.1091C122.459 77.1091 121.924 76.972 121.439 76.6977C120.955 76.4159 120.568 76.0273 120.281 75.5321C120.001 75.0293 119.862 74.4618 119.862 73.8295ZM125.421 73.8523C125.421 73.4181 125.323 73.041 125.126 72.721C124.936 72.4011 124.686 72.1572 124.373 71.9897C124.062 71.8221 123.725 71.7383 123.362 71.7383C123.001 71.7383 122.664 71.8221 122.352 71.9897C122.039 72.1497 121.784 72.3896 121.588 72.7096C121.398 73.022 121.304 73.3952 121.304 73.8295C121.304 74.2637 121.398 74.6447 121.588 74.9722C121.784 75.2997 122.039 75.5511 122.352 75.7264C122.672 75.894 123.009 75.9778 123.362 75.9778C123.725 75.9778 124.062 75.894 124.373 75.7264C124.686 75.5588 124.936 75.315 125.126 74.9951C125.323 74.6675 125.421 74.2866 125.421 73.8523ZM131.804 71.7726V75.2579C131.804 75.494 131.861 75.6654 131.976 75.7721C132.1 75.8711 132.306 75.9207 132.593 75.9207H133.456V77.0062H132.346C131.713 77.0062 131.228 76.8691 130.892 76.5949C130.555 76.3206 130.387 75.875 130.387 75.2579V71.7726H129.585V70.7098H130.387V69.1443H131.804V70.7098H133.456V71.7726H131.804ZM142.456 73.7038C142.456 73.9399 142.44 74.1533 142.407 74.3437H137.217C137.258 74.8465 137.46 75.2503 137.821 75.555C138.183 75.8597 138.626 76.0121 139.153 76.0121C139.909 76.0121 140.442 75.7188 140.755 75.1322H142.271C142.066 75.7111 141.692 76.1873 141.15 76.5606C140.615 76.9263 139.949 77.1091 139.153 77.1091C138.503 77.1091 137.92 76.9758 137.402 76.7091C136.892 76.4349 136.489 76.0539 136.194 75.5664C135.906 75.0712 135.762 74.4998 135.762 73.8523C135.762 73.2048 135.902 72.6372 136.181 72.1497C136.469 71.6544 136.867 71.2736 137.377 71.0069C137.895 70.7403 138.486 70.607 139.153 70.607C139.794 70.607 140.365 70.7365 140.866 70.9955C141.367 71.2545 141.758 71.6202 142.037 72.0925C142.316 72.5572 142.456 73.0943 142.456 73.7038ZM140.989 73.2924C140.982 72.8124 140.797 72.4278 140.434 72.1382C140.073 71.8487 139.626 71.704 139.091 71.704C138.606 71.704 138.191 71.8487 137.845 72.1382C137.5 72.4201 137.295 72.8049 137.229 73.2924H140.989ZM151.47 70.7098V77.0062H150.065V76.2635C149.844 76.5225 149.551 76.7282 149.189 76.8806C148.836 77.0253 148.458 77.0977 148.056 77.0977C147.521 77.0977 147.04 76.9948 146.613 76.7891C146.194 76.5834 145.861 76.2787 145.614 75.8749C145.376 75.4711 145.257 74.9836 145.257 74.4123V70.7098H146.65V74.218C146.65 74.7818 146.802 75.216 147.107 75.5207C147.41 75.8178 147.825 75.9664 148.351 75.9664C148.878 75.9664 149.292 75.8178 149.597 75.5207C149.909 75.216 150.065 74.7818 150.065 74.218V70.7098H151.47ZM156.209 71.624C156.415 71.304 156.686 71.0565 157.024 70.8812C157.369 70.6984 157.775 70.607 158.243 70.607V71.9554H157.887C157.335 71.9554 156.917 72.0849 156.629 72.3439C156.349 72.6029 156.209 73.0524 156.209 73.6923V77.0062H154.805V70.7098H156.209V71.624ZM165.228 73.8295C165.228 73.1971 165.367 72.6372 165.647 72.1497C165.935 71.6621 166.322 71.285 166.807 71.0184C167.3 70.7441 167.846 70.607 168.446 70.607C168.889 70.607 169.326 70.6984 169.752 70.8812C170.188 71.0565 170.533 71.2926 170.788 71.5897V68.5501H172.206V77.0062H170.788V76.0578C170.558 76.3625 170.237 76.6139 169.827 76.812C169.424 77.0101 168.959 77.1091 168.433 77.1091C167.841 77.1091 167.3 76.972 166.807 76.6977C166.322 76.4159 165.935 76.0273 165.647 75.5321C165.367 75.0293 165.228 74.4618 165.228 73.8295ZM170.788 73.8523C170.788 73.4181 170.69 73.041 170.492 72.721C170.303 72.4011 170.052 72.1572 169.74 71.9897C169.427 71.8221 169.091 71.7383 168.729 71.7383C168.368 71.7383 168.031 71.8221 167.718 71.9897C167.406 72.1497 167.152 72.3896 166.954 72.7096C166.765 73.022 166.67 73.3952 166.67 73.8295C166.67 74.2637 166.765 74.6447 166.954 74.9722C167.152 75.2997 167.406 75.5511 167.718 75.7264C168.039 75.894 168.376 75.9778 168.729 75.9778C169.091 75.9778 169.427 75.894 169.74 75.7264C170.052 75.5588 170.303 75.315 170.492 74.9951C170.69 74.6675 170.788 74.2866 170.788 73.8523ZM175.753 69.0643H177.282L175.987 71.784H175.001L175.753 69.0643ZM186.222 73.7038C186.222 73.9399 186.205 74.1533 186.172 74.3437H180.983C181.024 74.8465 181.224 75.2503 181.586 75.555C181.949 75.8597 182.392 76.0121 182.918 76.0121C183.675 76.0121 184.208 75.7188 184.521 75.1322H186.037C185.832 75.7111 185.457 76.1873 184.915 76.5606C184.381 76.9263 183.715 77.1091 182.918 77.1091C182.269 77.1091 181.686 76.9758 181.168 76.7091C180.658 76.4349 180.255 76.0539 179.96 75.5664C179.672 75.0712 179.528 74.4998 179.528 73.8523C179.528 73.2048 179.668 72.6372 179.947 72.1497C180.235 71.6544 180.633 71.2736 181.143 71.0069C181.661 70.7403 182.252 70.607 182.918 70.607C183.558 70.607 184.13 70.7365 184.631 70.9955C185.133 71.2545 185.524 71.6202 185.802 72.0925C186.082 72.5572 186.222 73.0943 186.222 73.7038ZM184.754 73.2924C184.746 72.8124 184.561 72.4278 184.2 72.1382C183.838 71.8487 183.39 71.704 182.857 71.704C182.372 71.704 181.956 71.8487 181.611 72.1382C181.266 72.4201 181.061 72.8049 180.994 73.2924H184.754ZM191.55 77.1091C191.016 77.1091 190.534 77.0215 190.108 76.8463C189.688 76.6634 189.355 76.4196 189.108 76.1149C188.862 75.8025 188.73 75.456 188.715 75.075H190.169C190.194 75.3417 190.329 75.5664 190.576 75.7493C190.831 75.9245 191.147 76.0121 191.525 76.0121C191.92 76.0121 192.224 75.9435 192.437 75.8064C192.66 75.6617 192.77 75.4788 192.77 75.2579C192.77 75.0218 192.647 74.8465 192.4 74.7322C192.162 74.618 191.78 74.4923 191.254 74.3551C190.744 74.2256 190.329 74.0999 190.009 73.978C189.688 73.8562 189.408 73.6695 189.17 73.4181C188.94 73.1667 188.825 72.8353 188.825 72.4239C188.825 72.0887 188.932 71.784 189.146 71.5097C189.36 71.2279 189.663 71.0069 190.058 70.847C190.461 70.687 190.921 70.607 191.439 70.607C192.212 70.607 192.832 70.7898 193.3 71.1555C193.778 71.5136 194.031 72.005 194.065 72.6296H192.66C192.635 72.3478 192.512 72.123 192.29 71.9554C192.067 71.7878 191.767 71.704 191.389 71.704C191.019 71.704 190.736 71.7687 190.539 71.8983C190.341 72.0278 190.243 72.1992 190.243 72.4125C190.243 72.5801 190.309 72.721 190.441 72.8353C190.572 72.9496 190.732 73.041 190.921 73.1096C191.111 73.1705 191.389 73.2505 191.759 73.3495C192.252 73.4714 192.655 73.5971 192.968 73.7266C193.288 73.8485 193.563 74.0313 193.793 74.2751C194.024 74.519 194.143 74.8427 194.151 75.2465C194.151 75.6045 194.044 75.9245 193.831 76.2063C193.616 76.4882 193.313 76.7091 192.918 76.8691C192.532 77.0291 192.075 77.1091 191.55 77.1091ZM198.555 71.6354C198.793 71.3459 199.118 71.1022 199.528 70.9041C199.939 70.706 200.404 70.607 200.921 70.607C201.513 70.607 202.052 70.7441 202.536 71.0184C203.03 71.285 203.416 71.6621 203.695 72.1497C203.974 72.6372 204.114 73.1971 204.114 73.8295C204.114 74.4618 203.974 75.0293 203.695 75.5321C203.416 76.0273 203.03 76.4159 202.536 76.6977C202.052 76.972 201.513 77.1091 200.921 77.1091C200.404 77.1091 199.943 77.0138 199.541 76.8234C199.138 76.6253 198.81 76.3816 198.555 76.0921V80.0002H197.149V70.7098H198.555V71.6354ZM202.685 73.8295C202.685 73.3952 202.585 73.022 202.388 72.7096C202.2 72.3896 201.945 72.1497 201.624 71.9897C201.312 71.8221 200.975 71.7383 200.613 71.7383C200.259 71.7383 199.923 71.8221 199.603 71.9897C199.29 72.1572 199.035 72.4011 198.838 72.721C198.648 73.041 198.555 73.4181 198.555 73.8523C198.555 74.2866 198.648 74.6675 198.838 74.9951C199.035 75.315 199.29 75.5588 199.603 75.7264C199.923 75.894 200.259 75.9778 200.613 75.9778C200.975 75.9778 201.312 75.894 201.624 75.7264C201.945 75.5511 202.2 75.2997 202.388 74.9722C202.585 74.6447 202.685 74.2637 202.685 73.8295ZM206.515 73.8295C206.515 73.1971 206.655 72.6372 206.934 72.1497C207.222 71.6621 207.608 71.285 208.094 71.0184C208.587 70.7441 209.128 70.607 209.72 70.607C210.255 70.607 210.719 70.706 211.114 70.9041C211.516 71.0945 211.837 71.3345 212.075 71.624V70.7098H213.493V77.0062H212.075V76.0692C211.837 76.3663 211.512 76.6139 211.101 76.812C210.69 77.0101 210.221 77.1091 209.696 77.1091C209.112 77.1091 208.578 76.972 208.094 76.6977C207.608 76.4159 207.222 76.0273 206.934 75.5321C206.655 75.0293 206.515 74.4618 206.515 73.8295ZM212.075 73.8523C212.075 73.4181 211.977 73.041 211.779 72.721C211.59 72.4011 211.339 72.1572 211.027 71.9897C210.714 71.8221 210.378 71.7383 210.016 71.7383C209.655 71.7383 209.318 71.8221 209.005 71.9897C208.693 72.1497 208.439 72.3896 208.241 72.7096C208.052 73.022 207.957 73.3952 207.957 73.8295C207.957 74.2637 208.052 74.6447 208.241 74.9722C208.439 75.2997 208.693 75.5511 209.005 75.7264C209.326 75.894 209.663 75.9778 210.016 75.9778C210.378 75.9778 210.714 75.894 211.027 75.7264C211.339 75.5588 211.59 75.315 211.779 74.9951C211.977 74.6675 212.075 74.2866 212.075 73.8523ZM216.35 73.8523C216.35 73.2048 216.49 72.6372 216.768 72.1497C217.056 71.6544 217.451 71.2736 217.952 71.0069C218.454 70.7403 219.029 70.607 219.678 70.607C220.5 70.607 221.178 70.7898 221.712 71.1555C222.254 71.5136 222.62 72.0278 222.809 72.6982H221.293C221.17 72.3858 220.973 72.1421 220.701 71.9668C220.43 71.7916 220.089 71.704 219.678 71.704C219.102 71.704 218.642 71.8944 218.297 72.2754C217.961 72.6486 217.792 73.1743 217.792 73.8523C217.792 74.5304 217.961 75.0598 218.297 75.4407C218.642 75.8217 219.102 76.0121 219.678 76.0121C220.492 76.0121 221.03 75.6807 221.293 75.0179H222.809C222.612 75.6578 222.242 76.1682 221.699 76.5492C221.158 76.9224 220.483 77.1091 219.678 77.1091C219.029 77.1091 218.454 76.9758 217.952 76.7091C217.451 76.4349 217.056 76.0539 216.768 75.5664C216.49 75.0712 216.35 74.4998 216.35 73.8523ZM231.915 73.7038C231.915 73.9399 231.899 74.1533 231.865 74.3437H226.676C226.717 74.8465 226.918 75.2503 227.279 75.555C227.642 75.8597 228.085 76.0121 228.611 76.0121C229.368 76.0121 229.901 75.7188 230.214 75.1322H231.73C231.525 75.7111 231.151 76.1873 230.608 76.5606C230.074 76.9263 229.408 77.1091 228.611 77.1091C227.962 77.1091 227.379 76.9758 226.861 76.7091C226.351 76.4349 225.948 76.0539 225.653 75.5664C225.365 75.0712 225.221 74.4998 225.221 73.8523C225.221 73.2048 225.361 72.6372 225.64 72.1497C225.928 71.6544 226.326 71.2736 226.836 71.0069C227.354 70.7403 227.945 70.607 228.611 70.607C229.252 70.607 229.823 70.7365 230.324 70.9955C230.826 71.2545 231.217 71.6202 231.495 72.0925C231.775 72.5572 231.915 73.0943 231.915 73.7038ZM230.448 73.2924C230.439 72.8124 230.254 72.4278 229.893 72.1382C229.531 71.8487 229.083 71.704 228.55 71.704C228.065 71.704 227.649 71.8487 227.304 72.1382C226.959 72.4201 226.754 72.8049 226.688 73.2924H230.448ZM237.243 77.1091C236.709 77.1091 236.228 77.0215 235.801 76.8463C235.381 76.6634 235.048 76.4196 234.802 76.1149C234.555 75.8025 234.425 75.456 234.408 75.075H235.862C235.887 75.3417 236.022 75.5664 236.269 75.7493C236.524 75.9245 236.84 76.0121 237.219 76.0121C237.613 76.0121 237.917 75.9435 238.13 75.8064C238.353 75.6617 238.463 75.4788 238.463 75.2579C238.463 75.0218 238.34 74.8465 238.093 74.7322C237.855 74.618 237.473 74.4923 236.947 74.3551C236.437 74.2256 236.022 74.0999 235.702 73.978C235.381 73.8562 235.103 73.6695 234.863 73.4181C234.633 73.1667 234.518 72.8353 234.518 72.4239C234.518 72.0887 234.625 71.784 234.839 71.5097C235.053 71.2279 235.356 71.0069 235.751 70.847C236.154 70.687 236.614 70.607 237.132 70.607C237.905 70.607 238.525 70.7898 238.993 71.1555C239.471 71.5136 239.726 72.005 239.758 72.6296H238.353C238.328 72.3478 238.205 72.123 237.983 71.9554C237.76 71.7878 237.46 71.704 237.082 71.704C236.712 71.704 236.429 71.7687 236.232 71.8983C236.034 72.0278 235.936 72.1992 235.936 72.4125C235.936 72.5801 236.002 72.721 236.134 72.8353C236.265 72.9496 236.426 73.041 236.614 73.1096C236.804 73.1705 237.082 73.2505 237.452 73.3495C237.945 73.4714 238.348 73.5971 238.661 73.7266C238.981 73.8485 239.256 74.0313 239.486 74.2751C239.717 74.519 239.836 74.8427 239.844 75.2465C239.844 75.6045 239.737 75.9245 239.524 76.2063C239.31 76.4882 239.006 76.7091 238.611 76.8691C238.225 77.0291 237.769 77.1091 237.243 77.1091ZM248.239 69.8756C247.984 69.8756 247.771 69.7957 247.598 69.6357C247.425 69.4757 247.339 69.2776 247.339 69.0415C247.339 68.8053 247.425 68.6072 247.598 68.4472C247.771 68.2873 247.984 68.2073 248.239 68.2073C248.486 68.2073 248.695 68.2873 248.867 68.4472C249.04 68.6072 249.127 68.8053 249.127 69.0415C249.127 69.2776 249.04 69.4757 248.867 69.6357C248.695 69.7957 248.486 69.8756 248.239 69.8756ZM248.929 70.7098V77.0062H247.524V70.7098H248.929ZM255.681 70.607C256.216 70.607 256.692 70.7098 257.111 70.9155C257.538 71.1212 257.872 71.4259 258.11 71.8297C258.348 72.2335 258.467 72.721 258.467 73.2924V77.0062H257.074V73.4867C257.074 72.9229 256.922 72.4925 256.617 72.1954C256.314 71.8907 255.899 71.7383 255.373 71.7383C254.846 71.7383 254.428 71.8907 254.115 72.1954C253.812 72.4925 253.659 72.9229 253.659 73.4867V77.0062H252.254V70.7098H253.659V71.4297C253.89 71.1708 254.181 70.9688 254.535 70.8241C254.896 70.6794 255.278 70.607 255.681 70.607ZM263.379 71.7726V75.2579C263.379 75.494 263.437 75.6654 263.552 75.7721C263.675 75.8711 263.88 75.9207 264.168 75.9207H265.031V77.0062H263.922C263.289 77.0062 262.804 76.8691 262.466 76.5949C262.129 76.3206 261.961 75.875 261.961 75.2579V71.7726H261.16V70.7098H261.961V69.1443H263.379V70.7098H265.031V71.7726H263.379ZM274.031 73.7038C274.031 73.9399 274.014 74.1533 273.982 74.3437H268.791C268.833 74.8465 269.034 75.2503 269.396 75.555C269.757 75.8597 270.201 76.0121 270.727 76.0121C271.483 76.0121 272.018 75.7188 272.33 75.1322H273.846C273.641 75.7111 273.267 76.1873 272.724 76.5606C272.19 76.9263 271.525 77.1091 270.727 77.1091C270.077 77.1091 269.494 76.9758 268.976 76.7091C268.467 76.4349 268.065 76.0539 267.768 75.5664C267.48 75.0712 267.337 74.4998 267.337 73.8523C267.337 73.2048 267.477 72.6372 267.756 72.1497C268.043 71.6544 268.443 71.2736 268.953 71.0069C269.469 70.7403 270.062 70.607 270.727 70.607C271.368 70.607 271.94 70.7365 272.441 70.9955C272.943 71.2545 273.333 71.6202 273.612 72.0925C273.891 72.5572 274.031 73.0943 274.031 73.7038ZM272.564 73.2924C272.556 72.8124 272.371 72.4278 272.01 72.1382C271.648 71.8487 271.2 71.704 270.665 71.704C270.181 71.704 269.766 71.8487 269.421 72.1382C269.076 72.4201 268.87 72.8049 268.804 73.2924H272.564ZM271.96 69.0186L269.236 70.2642V69.3043L271.96 67.9102V69.0186ZM278.299 71.624C278.504 71.304 278.776 71.0565 279.112 70.8812C279.457 70.6984 279.864 70.607 280.333 70.607V71.9554H279.975C279.425 71.9554 279.006 72.0849 278.718 72.3439C278.439 72.6029 278.299 73.0524 278.299 73.6923V77.0062H276.893V70.7098H278.299V71.624ZM283.82 69.8756C283.565 69.8756 283.35 69.7957 283.178 69.6357C283.005 69.4757 282.919 69.2776 282.919 69.0415C282.919 68.8053 283.005 68.6072 283.178 68.4472C283.35 68.2873 283.565 68.2073 283.82 68.2073C284.066 68.2073 284.275 68.2873 284.448 68.4472C284.621 68.6072 284.706 68.8053 284.706 69.0415C284.706 69.2776 284.621 69.4757 284.448 69.6357C284.275 69.7957 284.066 69.8756 283.82 69.8756ZM284.51 70.7098V77.0062H283.104V70.7098H284.51ZM294.06 73.7038C294.06 73.9399 294.044 74.1533 294.01 74.3437H288.821C288.861 74.8465 289.063 75.2503 289.424 75.555C289.786 75.8597 290.23 76.0121 290.755 76.0121C291.512 76.0121 292.046 75.7188 292.358 75.1322H293.875C293.669 75.7111 293.296 76.1873 292.753 76.5606C292.219 76.9263 291.553 77.1091 290.755 77.1091C290.107 77.1091 289.523 76.9758 289.006 76.7091C288.496 76.4349 288.093 76.0539 287.797 75.5664C287.51 75.0712 287.365 74.4998 287.365 73.8523C287.365 73.2048 287.505 72.6372 287.785 72.1497C288.073 71.6544 288.471 71.2736 288.981 71.0069C289.499 70.7403 290.09 70.607 290.755 70.607C291.397 70.607 291.968 70.7365 292.469 70.9955C292.971 71.2545 293.361 71.6202 293.641 72.0925C293.92 72.5572 294.06 73.0943 294.06 73.7038ZM292.593 73.2924C292.584 72.8124 292.399 72.4278 292.038 72.1382C291.676 71.8487 291.228 71.704 290.694 71.704C290.209 71.704 289.794 71.8487 289.449 72.1382C289.104 72.4201 288.899 72.8049 288.833 73.2924H292.593ZM303.074 70.7098V77.0062H301.668V76.2635C301.446 76.5225 301.155 76.7282 300.793 76.8806C300.44 77.0253 300.062 77.0977 299.659 77.0977C299.125 77.0977 298.644 76.9948 298.216 76.7891C297.798 76.5834 297.465 76.2787 297.218 75.8749C296.98 75.4711 296.86 74.9836 296.86 74.4123V70.7098H298.254V74.218C298.254 74.7818 298.406 75.216 298.709 75.5207C299.014 75.8178 299.429 75.9664 299.955 75.9664C300.481 75.9664 300.896 75.8178 301.2 75.5207C301.513 75.216 301.668 74.7818 301.668 74.218V70.7098H303.074ZM307.813 71.624C308.018 71.304 308.29 71.0565 308.626 70.8812C308.972 70.6984 309.379 70.607 309.847 70.607V71.9554H309.489C308.939 71.9554 308.52 72.0849 308.233 72.3439C307.953 72.6029 307.813 73.0524 307.813 73.6923V77.0062H306.407V70.7098H307.813V71.624ZM315.084 77.1091C314.55 77.1091 314.068 77.0215 313.642 76.8463C313.222 76.6634 312.89 76.4196 312.644 76.1149C312.397 75.8025 312.265 75.456 312.249 75.075H313.703C313.728 75.3417 313.863 75.5664 314.11 75.7493C314.365 75.9245 314.681 76.0121 315.059 76.0121C315.454 76.0121 315.758 75.9435 315.972 75.8064C316.194 75.6617 316.304 75.4788 316.304 75.2579C316.304 75.0218 316.181 74.8465 315.934 74.7322C315.696 74.618 315.314 74.4923 314.788 74.3551C314.278 74.2256 313.863 74.0999 313.543 73.978C313.222 73.8562 312.943 73.6695 312.705 73.4181C312.474 73.1667 312.359 72.8353 312.359 72.4239C312.359 72.0887 312.466 71.784 312.68 71.5097C312.894 71.2279 313.198 71.0069 313.592 70.847C313.995 70.687 314.455 70.607 314.973 70.607C315.746 70.607 316.366 70.7898 316.835 71.1555C317.312 71.5136 317.566 72.005 317.598 72.6296H316.194C316.169 72.3478 316.046 72.123 315.824 71.9554C315.602 71.7878 315.301 71.704 314.924 71.704C314.554 71.704 314.27 71.7687 314.073 71.8983C313.876 72.0278 313.777 72.1992 313.777 72.4125C313.777 72.5801 313.843 72.721 313.975 72.8353C314.106 72.9496 314.266 73.041 314.455 73.1096C314.644 73.1705 314.924 73.2505 315.294 73.3495C315.787 73.4714 316.189 73.5971 316.502 73.7266C316.822 73.8485 317.097 74.0313 317.328 74.2751C317.558 74.519 317.677 74.8427 317.685 75.2465C317.685 75.6045 317.578 75.9245 317.365 76.2063C317.15 76.4882 316.847 76.7091 316.452 76.8691C316.066 77.0291 315.609 77.1091 315.084 77.1091Z" fill="white"/>
<path d="M327.742 77.2158C331.166 77.2158 333.941 74.2113 333.941 70.5051C333.941 66.7989 331.166 63.7944 327.742 63.7944C324.319 63.7944 321.543 66.7989 321.543 70.5051C321.543 74.2113 324.319 77.2158 327.742 77.2158Z" fill="#D9D9D9"/>
<path d="M329.733 77.2158C332.057 77.2158 333.941 74.2113 333.941 70.5051C333.941 66.7989 332.057 63.7944 329.733 63.7944C327.409 63.7944 325.525 66.7989 325.525 70.5051C325.525 74.2113 327.409 77.2158 329.733 77.2158Z" fill="#E20007"/>
<path d="M325.344 77.1067C327.393 77.1067 329.054 74.1267 329.054 70.4506C329.054 66.7745 327.393 63.7944 325.344 63.7944C323.295 63.7944 321.634 66.7745 321.634 70.4506C321.634 74.1267 323.295 77.1067 325.344 77.1067Z" fill="#2B4A9E"/>
<path d="M329.054 63.9033H326.52V77.2156H329.054V63.9033Z" fill="white"/>
<path d="M0 75.278V76.1414H1.80064V75.278H0ZM0 1.02881V75.278H1.80064V1.02881H0Z" fill="black"/>
<path d="M29.0676 75.278V76.1414H30.8683V75.278H29.0676ZM29.0676 1.02881V75.278H30.8683V1.02881H29.0676Z" fill="black"/>
<path d="M72.5403 75.278V76.1414H74.3409V75.278H72.5403ZM72.5403 1.02881V75.278H74.3409V1.02881H72.5403Z" fill="black"/>
<path d="M26.9535 2.82959H27.2669V1.02895L26.9535 1.02895V2.82959ZM0 2.82959L26.9535 2.82959V1.02895L0 1.02895L0 2.82959Z" fill="black"/>
<path d="M26.9535 76.1416H27.2669V74.5982H26.9535V76.1416ZM0 76.1416H26.9535V74.5982H0L0 76.1416Z" fill="black"/>
<path d="M72.0612 76.1416H72.5402V74.5982H72.0612V76.1416ZM30.8682 76.1416H72.0612V74.5982H30.8682V76.1416Z" fill="black"/>
<path d="M72.0612 51.1899H72.5402V49.6465H72.0612V51.1899ZM30.8682 51.1899H72.0612V49.6465H30.8682V51.1899Z" fill="black"/>
<path d="M72.0612 26.4951H72.5402V24.9517H72.0612V26.4951ZM30.8682 26.4951L72.0612 26.4951V24.9517L30.8682 24.9517V26.4951Z" fill="black"/>
<path d="M72.0612 2.57227H72.5402V1.02886H72.0612V2.57227ZM30.8682 2.57227L72.0612 2.57227V1.02886L30.8682 1.02886V2.57227Z" fill="black"/>
<path d="M72.5402 2.57227H30.8682V24.9517H72.5402V2.57227Z" fill="#A1A536"/>
<path d="M72.5402 26.4951H30.8682V49.6462H72.5402V26.4951Z" fill="white"/>
<path d="M72.5402 51.1899H30.8682V74.5983H72.5402V51.1899Z" fill="#706668"/>
</svg>
