<svg width="634" height="653" viewBox="0 0 634 653" fill="none" xmlns="http://www.w3.org/2000/svg">
<line x1="217.5" y1="8" x2="14.5" y2="8" stroke="black" stroke-width="15" stroke-linecap="square"/>
<path d="M0 645.5L0 653H15V645.5H0ZM0 0.5L0 645.5H15L15 0.5L0 0.5Z" fill="black"/>
<path d="M218 653H225.5V638H218V653ZM0 653H218V638H0V653Z" fill="black"/>
<rect x="251.5" y="8" width="375" height="637" stroke="black" stroke-width="15"/>
<path d="M621.02 207.053L628.52 207.032L628.48 192.032L620.98 192.053L621.02 207.053ZM256.02 208.069L621.02 207.053L620.98 192.053L255.98 193.069L256.02 208.069Z" fill="black"/>
<path d="M621 433.019H628.5V418.019H621V433.019ZM256 433.019L621 433.019V418.019L256 418.019V433.019Z" fill="black"/>
<rect x="256" y="13.5" width="365" height="180" fill="#A1A536"/>
<rect x="256" y="432.5" width="365" height="205" fill="#706668"/>
</svg>
